<svg xmlns="http://www.w3.org/2000/svg" viewBox="0 0 500 500">
  <defs>
    <filter id="fire-blur" x="-50%" y="-50%" width="200%" height="200%">
      <feGaussianBlur in="SourceGraphic" stdDeviation="1" result="blur"/>
      <feColorMatrix in="blur" mode="matrix" values="1 0 0 0 0  0 1 0 0 0  0 0 1 0 0  0 0 0 18 -7" result="matrix"/>
      <feMerge>
        <feMergeNode in="matrix"/>
        <feMergeNode in="SourceGraphic"/>
      </feMerge>
    </filter>
  </defs>
  
  <g class="fire-group" style="display: none;">
    <ellipse cx="250" cy="300" rx="200" ry="150" fill="#ff4d00" filter="url(#fire-blur)"/>
    <ellipse cx="250" cy="250" rx="150" ry="200" fill="#ff7700" filter="url(#fire-blur)"/>
    <ellipse cx="250" cy="200" rx="100" ry="250" fill="#ffaa00" filter="url(#fire-blur)"/>
    <ellipse cx="250" cy="180" rx="50" ry="100" fill="white" filter="url(#fire-blur)"/>
  </g>
  
  <g class="static-logo" fill="#a52a2a"> <path d="M250,20a230,230,0,1,1,0,460a230,230,0,1,1,0,-460m0,20a210,210,0,1,0,0,420a210,210,0,1,0,0,-420" fill="#e74c3c"/>
    <circle cx="250" cy="250" r="200" fill="none" stroke="#e74c3c" stroke-width="5"/>
    
    <text x="250" y="40" font-family="'Segoe UI', sans-serif" font-weight="bold" font-size="28" text-anchor="middle" fill="#a52a2a">TRƯỜNG THPT NIỆM</text>
    <text x="250" y="470" font-family="'Segoe UI', sans-serif" font-weight="bold" font-size="28" text-anchor="middle" fill="#a52a2a">KỶ NIỆM 2025-2026</text>
    <circle cx="200" cy="250" r="40" fill="#a52a2a"/>
    <circle cx="250" cy="250" r="40" fill="#e74c3c"/>
    <circle cx="300" cy="250" r="40" fill="#a52a2a"/>
  </g>
</svg>
